<svg xmlns="http://www.w3.org/2000/svg" viewBox="0 0 150 105"><defs><style>.cls-1,.cls-7{fill:#fff}.cls-2{fill:#aae9fb}.cls-3,.cls-8{fill:none}.cls-3,.cls-7{stroke:#556a8a}.cls-3{stroke-linejoin:bevel}.cls-3,.cls-7,.cls-8{stroke-width:2px}.cls-4{fill:#556a8a}.cls-5{fill:#ffd055}.cls-6{fill:#ffb900}.cls-7,.cls-8{stroke-miterlimit:10}.cls-8{stroke:#aae9fb}</style></defs><title>ms365enterprise-admin-collaboration-certified-partner-7</title><g id="ICONS"><g><path d="M135.2,53A43.45,43.45,0,1,1,91.75,9.55,43.5,43.5,0,0,1,135.2,53Z" class="cls-1"/><path d="M135.45,53a43.45,43.45,0,1,1-86.9,0Z" class="cls-2"/><line x1="48.55" x2="135.2" y1="53" y2="53" class="cls-3"/><path d="M92,11c9.65,0,17.8,19.23,17.8,42S101.65,95,92,95,74.2,75.77,74.2,53,82.35,11,92,11m0-2C81.06,9,72.2,28.7,72.2,53S81.06,97,92,97s19.8-19.7,19.8-44S102.94,9,92,9Z" class="cls-4"/><path d="M92,11A42,42,0,1,1,50,53,42,42,0,0,1,92,11m0-2a44,44,0,1,0,44,44A44,44,0,0,0,92,9Z" class="cls-4"/><path d="M57.35,27.62C65.19,30.88,77.55,33,91.45,33c14.57,0,27.45-2.31,35.2-5.84" class="cls-3"/><path d="M57.35,78.17c7.84-3.26,20.2-5.37,34.11-5.37,14.57,0,27.45,2.31,35.2,5.84" class="cls-3"/></g><g><path d="M76,64.5a29.5,29.5,0,0,1-59,0c0-.21,0-.41,0-.63a29.49,29.49,0,0,1,59,0C76,64.09,76,64.29,76,64.5Z" class="cls-5"/><path d="M76,64.5a29.5,29.5,0,0,1-59,0v-.63H76C76,64.09,76,64.29,76,64.5Z" class="cls-6"/><g><circle cx="46.5" cy="55.09" r="9.68" class="cls-7"/><path d="M31.44,80.19a15.06,15.06,0,0,1,30.13,0" class="cls-7"/></g></g><polygon points="27 19 30.18 23.13 35 21.14 35.69 26.31 40.86 27 38.87 31.82 43 35 38.87 38.18 40.86 43 35.69 43.69 35 48.86 30.18 46.87 27 51 23.82 46.87 19 48.86 18.31 43.69 13.14 43 15.13 38.18 11 35 15.13 31.82 13.14 27 18.31 26.31 19 21.14 23.82 23.13 27 19" class="cls-4"/><polyline points="19 36 25 41 35 29" class="cls-8"/></g></svg>