<svg xmlns="http://www.w3.org/2000/svg" viewBox="0 0 400 140"><defs><style>.cls-1{fill:#55d2f6}.cls-2{fill:#556a8a}.cls-3,.cls-7{fill:#fff}.cls-4,.cls-5,.cls-8{fill:none}.cls-4,.cls-5,.cls-6{stroke:#556a8a}.cls-4,.cls-5,.cls-6,.cls-7,.cls-8{stroke-miterlimit:10;stroke-width:2px}.cls-5{stroke-linecap:round}.cls-6{fill:#e5e5e5}.cls-7,.cls-8{stroke:#a80000}</style></defs><title>bcs-partner-remove-3</title><g id="ICONS"><g><rect width="144" height="8" x="144" y="115" class="cls-1"/><polygon points="237.51 113 192.28 113 187.06 117 242.72 117 237.51 113" class="cls-2"/><polygon points="217.57 113.94 211.47 113.94 212.69 97.75 216.35 97.75 217.57 113.94" class="cls-2"/><rect width="132" height="72" x="150" y="28" class="cls-3" rx="4" ry="4" transform="translate(432 128) rotate(180)"/><path d="M281.45,44V32.57A4.71,4.71,0,0,0,276.61,28H154.4a4.71,4.71,0,0,0-4.84,4.57V44Z" class="cls-1"/><rect width="132" height="72" x="150" y="28" class="cls-4" rx="4" ry="4" transform="translate(432 128) rotate(180)"/></g><g><g><g><rect width="4" height="4" x="177" y="50" class="cls-2"/><rect width="4" height="4" x="177" y="56" class="cls-2"/><rect width="4" height="4" x="177" y="62" class="cls-2"/><rect width="4" height="4" x="177" y="68" class="cls-2"/></g><g><rect width="4" height="4" x="183" y="50" class="cls-2"/><rect width="4" height="4" x="183" y="56" class="cls-2"/><rect width="4" height="4" x="183" y="62" class="cls-2"/><rect width="4" height="4" x="183" y="68" class="cls-2"/></g><g><rect width="4" height="4" x="189" y="50" class="cls-2"/><rect width="4" height="4" x="189" y="56" class="cls-2"/><rect width="4" height="4" x="189" y="62" class="cls-2"/><rect width="4" height="4" x="189" y="68" class="cls-2"/></g><g><rect width="4" height="4" x="195" y="50" class="cls-2"/><rect width="4" height="4" x="195" y="56" class="cls-2"/><rect width="4" height="4" x="195" y="62" class="cls-2"/><rect width="4" height="4" x="195" y="68" class="cls-2"/></g><g><rect width="4" height="4" x="201" y="50" class="cls-2"/><rect width="4" height="4" x="201" y="56" class="cls-2"/><rect width="4" height="4" x="201" y="62" class="cls-2"/><rect width="4" height="4" x="207" y="62" class="cls-2"/><rect width="4" height="4" x="213" y="62" class="cls-2"/><rect width="4" height="4" x="219" y="50" class="cls-2"/><rect width="4" height="4" x="219" y="56" class="cls-2"/><rect width="4" height="4" x="213" y="56" class="cls-2"/><rect width="4" height="4" x="207" y="56" class="cls-2"/><rect width="4" height="4" x="219" y="62" class="cls-2"/><rect width="4" height="4" x="225" y="62" class="cls-2"/><rect width="4" height="4" x="231" y="62" class="cls-2"/><rect width="4" height="4" x="201" y="68" class="cls-2"/><rect width="4" height="4" x="207" y="68" class="cls-2"/><rect width="4" height="4" x="213" y="68" class="cls-2"/><rect width="4" height="4" x="219" y="68" class="cls-2"/><rect width="4" height="4" x="225" y="68" class="cls-2"/><rect width="4" height="4" x="231" y="68" class="cls-2"/><rect width="4" height="4" x="237" y="68" class="cls-2"/><rect width="4" height="4" x="213" y="74" class="cls-2"/><rect width="4" height="4" x="219" y="74" class="cls-2"/></g></g><g><g><rect width="4" height="4" x="177" y="74" class="cls-2"/><rect width="4" height="4" x="177" y="80" class="cls-2"/></g><g><rect width="4" height="4" x="183" y="74" class="cls-2"/><rect width="4" height="4" x="183" y="80" class="cls-2"/></g><g><rect width="4" height="4" x="189" y="74" class="cls-2"/><rect width="4" height="4" x="189" y="80" class="cls-2"/></g><g><rect width="4" height="4" x="195" y="74" class="cls-2"/><rect width="4" height="4" x="195" y="80" class="cls-2"/></g><g><rect width="4" height="4" x="201" y="74" class="cls-2"/><rect width="4" height="4" x="207" y="74" class="cls-2"/><rect width="4" height="4" x="213" y="80" class="cls-2"/><rect width="4" height="4" x="219" y="80" class="cls-2"/><rect width="4" height="4" x="225" y="74" class="cls-2"/><rect width="4" height="4" x="225" y="80" class="cls-2"/><rect width="4" height="4" x="231" y="80" class="cls-2"/><rect width="4" height="4" x="207" y="80" class="cls-2"/><rect width="4" height="4" x="201" y="80" class="cls-2"/><rect width="4" height="4" x="189" y="86" class="cls-2"/><rect width="4" height="4" x="195" y="86" class="cls-2"/><rect width="4" height="4" x="201" y="86" class="cls-2"/></g></g></g><g><line x1="117" x2="140.66" y1="69" y2="69" class="cls-5"/><polygon points="135.02 75.95 133.86 74.71 140 69 133.86 63.29 135.02 62.05 142.5 69 135.02 75.95" class="cls-2"/></g><g><line x1="305.5" x2="329.16" y1="69" y2="69" class="cls-5"/><polygon points="323.52 75.95 322.36 74.71 328.5 69 322.36 63.29 323.52 62.05 331 69 323.52 75.95" class="cls-2"/></g><g><circle cx="94.5" cy="55" r="18" class="cls-6"/><path d="M67,100a27.5,27.5,0,0,1,55,0" class="cls-6"/></g><circle cx="282" cy="68" r="17" class="cls-7"/><line x1="293" x2="269" y1="80" y2="56" class="cls-8"/></g></svg>