<svg xmlns="http://www.w3.org/2000/svg" viewBox="0 0 150 105"><defs><style>.cls-1{fill:#55d2f6}.cls-2{fill:#c2c2c2;opacity:.6}.cls-11,.cls-3,.cls-7{fill:#fff}.cls-3{opacity:.4}.cls-10,.cls-4,.cls-5{fill:none}.cls-10,.cls-11,.cls-4{stroke:#556a8a}.cls-4{stroke-linecap:round;stroke-linejoin:round}.cls-10,.cls-11,.cls-4,.cls-5{stroke-width:2px}.cls-5{stroke:#2bc7f4}.cls-10,.cls-11,.cls-5{stroke-miterlimit:10}.cls-6{fill:#2bc7f4}.cls-8{fill:#e5e5e5}.cls-9{fill:#ffb900}.cls-12{fill:#c6df33}.cls-13{fill:#bad80a}.cls-14{fill:#556a8a}</style></defs><title>ms365enterprise-admin-get-started-why365-1</title><g id="ICONS"><circle cx="84.75" cy="78.5" r="20.41" class="cls-1"/><circle cx="113.29" cy="47.46" r="27.21" class="cls-2"/><circle cx="49.71" cy="45.29" r="36.29" class="cls-3"/><polyline points="71.5 80.5 79 88 98 69" class="cls-4"/><g><path d="M21.55,28.66a32.93,32.93,0,1,1-1.66,29.65" class="cls-5"/><polygon points="20 60 20 78 18 78 18 58 38 58 38 60 20 60" class="cls-6"/></g></g><g id="Titles"><g><path d="M79.75,13.78,79,13a4.37,4.37,0,0,0-6.16,0L47.48,38.35,44,48.74l10.39-3.46L79.75,19.93A4.37,4.37,0,0,0,79.75,13.78Z" class="cls-7"/><rect width="35.91" height="3.26" x="45.35" y="28.9" class="cls-8" transform="translate(-3.05 53.71) rotate(-45)"/><polygon points="54.28 44.65 54.12 44.8 44.88 47.88 47.96 38.64 48.12 38.49 54.28 44.65" class="cls-6"/><path d="M80.47,16.85a3.78,3.78,0,0,1-1.11,2.7l-2.54,2.54-6.16-6.16,2.54-2.54a3.82,3.82,0,0,1,5.39,0l.77.77A3.76,3.76,0,0,1,80.47,16.85Z" class="cls-9"/><path d="M79.75,13.78,79,13a4.37,4.37,0,0,0-6.16,0L47.48,38.35,44,48.74l10.39-3.46L79.75,19.93A4.37,4.37,0,0,0,79.75,13.78Z" class="cls-10"/><line x1="48.07" x2="54.49" y1="38.02" y2="44.44" class="cls-10"/></g><g><g><circle cx="104.48" cy="36.76" r="5.06" class="cls-11"/><path d="M96.38,49.92a8.1,8.1,0,1,1,16.19,0" class="cls-11"/></g><g><circle cx="123.71" cy="36.76" r="5.06" class="cls-11"/><path d="M115.61,49.92a8.1,8.1,0,1,1,16.19,0" class="cls-11"/></g><g><circle cx="113.59" cy="47.07" r="6.07" class="cls-11"/><path d="M103.47,63a10.13,10.13,0,0,1,20.24,0" class="cls-11"/></g></g><path d="M65.56,76v0a12,12,0,0,1-24,0v0a12,12,0,0,1,24,0Z" class="cls-12"/><path d="M65.56,76v0a12,12,0,0,1-24,0v0Z" class="cls-13"/><path d="M53.75,71.3a1.43,1.43,0,0,1-1-.38,1.25,1.25,0,0,1-.42-1,1.28,1.28,0,0,1,.42-1,1.41,1.41,0,0,1,1-.39,1.45,1.45,0,0,1,1,.39,1.27,1.27,0,0,1,.42,1,1.25,1.25,0,0,1-.42.95A1.44,1.44,0,0,1,53.75,71.3ZM54.93,84H52.55V73.5h2.38Z" class="cls-14"/></g></svg>