<svg xmlns="http://www.w3.org/2000/svg" id="ICONS" viewBox="0 0 150 105"><defs><style>.cls-1,.cls-4,.cls-7{fill:none;stroke-miterlimit:10;stroke-width:2px}.cls-1{stroke:#c2c2c2}.cls-2{fill:#e5e5e5}.cls-3{fill:#fff}.cls-4{stroke:#556a8a}.cls-5{fill:#bad80a}.cls-6{fill:#55d2f6}.cls-7{stroke:#a7a9ac}</style></defs><title>ms365enterprise-information-end-user-content-7</title><polyline points="132 17 15 53 127.39 87" class="cls-1"/><g><polygon points="89 33.5 68 33.5 68 13.5 89 33.5" class="cls-2"/><rect width="24" height="60" x="44" y="14.5" class="cls-3"/><path d="M67.88,14H43a1,1,0,0,0-1,1V75a1,1,0,0,0,1,1H87a1,1,0,0,0,1-1V33.37Z" class="cls-4"/><rect width="16" height="60" x="43" y="15" class="cls-2"/><polyline points="68 14 68 34 89 34" class="cls-4"/></g><g><path d="M82.88,25H58a1,1,0,0,0-1,1V86a1,1,0,0,0,1,1H102a1,1,0,0,0,1-1V44.37Z" class="cls-3"/><polygon points="103 45 83 44.5 83 25 103 45" class="cls-5"/><rect width="24" height="60" x="59" y="25.5" class="cls-3"/><path d="M82.88,25H58a1,1,0,0,0-1,1V86a1,1,0,0,0,1,1H102a1,1,0,0,0,1-1V44.37Z" class="cls-4"/><rect width="16" height="60" x="58" y="26" class="cls-2"/><polyline points="83 25 83 45 104 45" class="cls-4"/></g><circle cx="18" cy="53" r="6" class="cls-6"/><circle cx="127" cy="87" r="6" class="cls-6"/><circle cx="127" cy="18" r="6" class="cls-6"/><g><line x1="67" x2="80" y1="48" y2="48" class="cls-7"/><line x1="67" x2="99" y1="57" y2="57" class="cls-7"/><line x1="67" x2="99" y1="66" y2="66" class="cls-7"/><line x1="67" x2="99" y1="75" y2="75" class="cls-7"/></g></svg>