<svg xmlns="http://www.w3.org/2000/svg" id="ICONS" viewBox="0 0 150 105"><defs><style>.cls-1{fill:#55d2f6}.cls-2{fill:#ace8f9}.cls-3{fill:none;stroke:#556a8a}.cls-3,.cls-4{stroke-miterlimit:10;stroke-width:2px}.cls-4,.cls-6{fill:#fff}.cls-4{stroke:#ffb900}.cls-5{fill:#556a8a}</style></defs><title>ms365enterprise-information-end-user-real-time-10</title><g><path d="M114,55A39,39,0,0,1,76,94H75a39,39,0,0,1,0-78h1A39,39,0,0,1,114,55Z" class="cls-1"/><g><path d="M102.63,27.44a39,39,0,0,1,.68,54.46L48.17,26.76A39,39,0,0,1,102.63,27.44Z" class="cls-2"/><circle cx="75.05" cy="55.01" r="39" class="cls-3" transform="translate(-16.92 69.18) rotate(-45)"/><path d="M61,84,51,77.36V61.15A2,2,0,0,0,49.12,59h-26A2.17,2.17,0,0,0,21,61.15V81.82A2.17,2.17,0,0,0,23.16,84Z" class="cls-4"/><circle cx="75" cy="54.99" r="6" class="cls-5"/><line x1="75" x2="75" y1="54.99" y2="25.99" class="cls-3"/><line x1="104" x2="75" y1="54.99" y2="54.99" class="cls-3"/><path d="M130,11H98a2,2,0,0,0-2,2V37a2,2,0,0,0,2,2h4V50l11-11h17a2,2,0,0,0,2-2V13A2,2,0,0,0,130,11Z" class="cls-6"/><g><circle cx="114" cy="20.99" r="5" class="cls-3"/><path d="M106,34a8,8,0,0,1,16,0" class="cls-3"/></g><path d="M130,11H98a2,2,0,0,0-2,2V37a2,2,0,0,0,2,2h4V50l11-11h17a2,2,0,0,0,2-2V13A2,2,0,0,0,130,11Z" class="cls-3"/><g><circle cx="36" cy="67.99" r="5" class="cls-3"/><path d="M28,81a8,8,0,0,1,16,0" class="cls-3"/></g><circle cx="75" cy="54.99" r="3" class="cls-6"/></g></g></svg>