<svg xmlns="http://www.w3.org/2000/svg" id="ICONS" viewBox="0 0 150 105"><defs><style>.cls-1{fill:#556a8a}.cls-2{fill:#adbdca}.cls-11,.cls-3,.cls-9{fill:#fff}.cls-4{fill:#c8edfb}.cls-5,.cls-6,.cls-7{fill:none}.cls-11,.cls-5{stroke:#556a8a}.cls-11,.cls-5,.cls-7{stroke-miterlimit:10;stroke-width:2px}.cls-7{stroke:#ababab;stroke-dasharray:3 3}.cls-8{fill:#00aff0}.cls-9{fill-rule:evenodd}.cls-10{fill:#2bc7f4}</style></defs><title>ms365enterprise-information-end-user-collaborate-4</title><g><g><g><polygon points="84.16 96 20.01 96 24.02 92 80.4 92 84.16 96" class="cls-1"/><polygon points="78.13 95 26.05 95 27.88 93 76.35 93 78.13 95" class="cls-2"/><polygon points="66.28 86 37.82 86 34.53 89 69.56 89 66.28 86" class="cls-1"/><polygon points="54.79 86.87 50.95 86.87 51.72 79.2 54.02 79.2 54.79 86.87" class="cls-1"/><rect width="83" height="44.92" x="9.98" y="35.52" class="cls-3" rx="4" ry="4" transform="translate(102.95 115.96) rotate(180)"/><path d="M93.36,46.56V38.94a3,3,0,0,0-3-3H13.4a3,3,0,0,0-3,3v7.61Z" class="cls-4"/><rect width="83" height="44.92" x="10.95" y="36.08" class="cls-5" rx="4" ry="4" transform="translate(104.9 117.08) rotate(180)"/></g><rect width="96.7" height="69.29" x="3.7" y="31.71" class="cls-6"/></g><polyline points="97.92 15.34 52.24 61.02 132.95 61.02" class="cls-7"/><line x1="52.24" x2="123.05" y1="61.02" y2="32.85" class="cls-7"/></g><g><g><circle cx="48.02" cy="60.32" r="14.21" class="cls-8"/><ellipse cx="41.24" cy="53.21" class="cls-8" rx="8.72" ry="8.4"/><ellipse cx="54.8" cy="67.42" class="cls-8" rx="8.72" ry="8.4"/></g><path d="M48.08,69.36c-4.91,0-7.16-2.54-7.16-4.41a1.6,1.6,0,0,1,1.68-1.62c2.1,0,1.56,3.2,5.48,3.2,2,0,3.18-1.23,3.18-2.38,0-.69-.39-1.46-1.71-1.8l-4.37-1.13c-3.52-.91-4.14-2.9-4.14-4.74,0-3.83,3.45-5.21,6.73-5.21,3,0,6.62,1.69,6.62,4a1.58,1.58,0,0,1-1.76,1.52c-1.79,0-1.5-2.56-5.11-2.56-1.79,0-2.74.85-2.74,2.05s1.39,1.6,2.62,1.89l3.24.74c3.54.81,4.49,2.92,4.49,4.93,0,3.11-2.37,5.51-7,5.51" class="cls-9"/></g><g><circle cx="128.95" cy="61.34" r="12" class="cls-10"/><g><circle cx="128.95" cy="56.75" r="4.38" class="cls-11"/><path d="M122,68a7,7,0,0,1,14,0" class="cls-11"/></g></g><g><circle cx="127.95" cy="29.34" r="12" class="cls-10"/><g><circle cx="127.95" cy="24.75" r="4.38" class="cls-11"/><path d="M121,36a7,7,0,1,1,14,0" class="cls-11"/></g></g><g><circle cx="94.95" cy="19.34" r="12" class="cls-10"/><g><circle cx="94.95" cy="15.38" r="4.38" class="cls-11"/><path d="M88,26.63a7,7,0,0,1,14,0" class="cls-11"/></g></g></svg>