<svg xmlns="http://www.w3.org/2000/svg" id="ICONS" viewBox="0 0 150 105"><defs><style>.cls-1{fill:#fff}.cls-2{fill:#e5e5e5}.cls-3,.cls-4,.cls-7{fill:none}.cls-3{stroke:#2bc7f4}.cls-3,.cls-5,.cls-7{stroke-miterlimit:10;stroke-width:2px}.cls-5{fill:#c6df33;stroke:#bad80a}.cls-6{fill:#f3f8d6}.cls-7{stroke:#556a8a}.cls-8{fill:#55d2f6}</style></defs><title>ms365enterprise-information-end-user-work-securely-3</title><g><g><circle cx="63.84" cy="58.72" r="38.72" class="cls-1"/><path d="M63.51,96.67c-21.06,0-38.33-16.78-38.49-37.4V58.16h77v1.11C101.83,79.89,84.57,96.67,63.51,96.67Z" class="cls-2"/><circle cx="63.84" cy="58.72" r="38.72" class="cls-3"/><ellipse cx="63.84" cy="58.72" class="cls-3" rx="17.04" ry="38.72"/><line x1="25" x2="103" y1="59" y2="59" class="cls-3"/><rect width="77.44" height="77.44" x="25.12" y="20" class="cls-4"/></g><path d="M96.12,36.71C88.82,39.92,77.2,42,64.12,42s-24.7-2.08-32-5.29" class="cls-3"/><path d="M96.12,81c-7.3-3.21-18.92-5.29-32-5.29s-24.7,2.08-32,5.29" class="cls-3"/></g><path d="M91,9c-.27,0-.53,0-.79,0s-.52,0-.79,0A19.72,19.72,0,0,0,69.75,28.71c0,5.52,1,6.15,3.15,11.83,5.71,14.9,17.35,28.38,17.35,28.38s11.64-13.48,17.35-28.38c2.18-5.68,3.15-6.31,3.15-11.83A19.72,19.72,0,0,0,91,9Z" class="cls-5"/><circle cx="90.25" cy="28" r="18" class="cls-6"/><g><rect width="12" height="16" x="84" y="13.4" class="cls-7" rx="6" ry="6"/><path d="M100,39.17a.86.86,0,0,1-.89.83H80.89a.86.86,0,0,1-.89-.83V25.83a.86.86,0,0,1,.89-.83H99.11a.86.86,0,0,1,.89.83Z" class="cls-1"/><path d="M100,25.71V39.87L84.93,24.8H99.09A.92.92,0,0,1,100,25.71Z" class="cls-8"/><path d="M100,39.17a.86.86,0,0,1-.89.83H80.89a.86.86,0,0,1-.89-.83V25.83a.86.86,0,0,1,.89-.83H99.11a.86.86,0,0,1,.89.83Z" class="cls-7"/></g></svg>