<svg xmlns="http://www.w3.org/2000/svg" id="ICONS" viewBox="0 0 150 105"><defs><style>.cls-1,.cls-2,.cls-9{fill:#fff}.cls-1,.cls-4{stroke:#556a8a;stroke-linecap:round;stroke-linejoin:round}.cls-1,.cls-4,.cls-8,.cls-9{stroke-width:2px}.cls-3{fill:#2bc7f4}.cls-4,.cls-6,.cls-8{fill:none}.cls-5{fill:#e5e5e5}.cls-7{fill:#ace8f9}.cls-8,.cls-9{stroke:#2bc7f4;stroke-miterlimit:10}.cls-9{stroke:#bad80a}.cls-10{fill:#556a8a}</style></defs><title>ms365enterprise-information-end-user-help-13</title><g><g><g><g><rect width="90" height="71.09" x="38" y="22" class="cls-1"/><path d="M83,91a9.89,9.89,0,0,0-6.46-3H47V17H77.35C82.29,17,83,24.33,83,24.33S83.71,17,88.65,17H119V88H89.46A9.89,9.89,0,0,0,83,91" class="cls-2"/><rect width="1.9" height="67.16" x="82.05" y="22.84" class="cls-3"/><path d="M83,91a9.89,9.89,0,0,0-6.46-3H47V17H77.35C82.29,17,83,24.33,83,24.33S83.71,17,88.65,17H119V88H89.46A9.89,9.89,0,0,0,83,91" class="cls-4"/></g><rect width="9" height="69" x="48" y="18" class="cls-5"/><rect width="9" height="69" x="109" y="18" class="cls-5"/></g><g><rect width="48" height="48" x="19" y="8" class="cls-6"/><path d="M28,9v9L43,33V51H53V33l1.35-1.35L68,18V9Z" class="cls-2"/><polygon points="69 9 69 18 54 33 28 9 69 9" class="cls-7"/><path d="M28,9v9L43,33V51H53V33L68,18V9Z" class="cls-8"/></g><rect width="4" height="23" x="48" y="27" class="cls-7"/></g><circle cx="112" cy="60" r="19.5" class="cls-9"/><path d="M110.38,66.42a8.23,8.23,0,0,1-.3-1.29,9.44,9.44,0,0,1-.13-1.57,4.89,4.89,0,0,1,.49-2.2,9.11,9.11,0,0,1,1.21-1.84,18.39,18.39,0,0,1,1.58-1.65q.86-.79,1.58-1.6A9.15,9.15,0,0,0,116,54.59a4,4,0,0,0,.49-2,3.57,3.57,0,0,0-.35-1.62,3.43,3.43,0,0,0-1-1.18,4.24,4.24,0,0,0-1.41-.71,5.93,5.93,0,0,0-1.69-.24,7.39,7.39,0,0,0-5.58,2.53V48.06a11.21,11.21,0,0,1,6-1.83,9.47,9.47,0,0,1,2.72.38,6.72,6.72,0,0,1,2.24,1.13A5.34,5.34,0,0,1,119,49.63a5.85,5.85,0,0,1,.55,2.61,6.08,6.08,0,0,1-.5,2.51,9.06,9.06,0,0,1-1.25,2,16,16,0,0,1-1.63,1.72q-.88.8-1.63,1.59a8.73,8.73,0,0,0-1.25,1.65,3.7,3.7,0,0,0-.5,1.88,5.64,5.64,0,0,0,.21,1.59,11.39,11.39,0,0,0,.42,1.21Zm1.71,7.92a2.11,2.11,0,0,1-1.49-.61,2,2,0,0,1-.63-1.49,2,2,0,0,1,.63-1.49,2.07,2.07,0,0,1,3,0,2,2,0,0,1,.63,1.49,2,2,0,0,1-.63,1.49A2.11,2.11,0,0,1,112.09,74.34Z" class="cls-10"/></g></svg>