<svg xmlns="http://www.w3.org/2000/svg" id="ICONS" viewBox="0 0 400 140"><defs><style>.cls-1{fill:#d1d3d4}.cls-2{fill:#d1e55c}.cls-3{fill:#e6e7e8}.cls-4{fill:#0078d7}.cls-5{fill:#ff9f2b}.cls-6{fill:#ff8c00}.cls-7{fill:#556a8a}.cls-12,.cls-8{fill:#fff}.cls-9{fill:#e5e5e5}.cls-10{fill:#2bc7f4}.cls-11{fill:none}.cls-11,.cls-12{stroke:#556a8a}.cls-11,.cls-12,.cls-15{stroke-miterlimit:10;stroke-width:2px}.cls-13{fill:#55d2f6}.cls-14{fill:#e6e6e6}.cls-15{fill:#aae9fb;stroke:#00bcf2}</style></defs><title>bcs-information-product-help-windows10</title><polygon points="173.04 74 140.71 74 124.54 102 140.71 130 173.04 130 189.21 102 173.04 74" class="cls-1"/><polygon points="173.04 16 140.71 16 124.54 44 140.71 72 173.04 72 189.21 44 173.04 16" class="cls-1"/><polygon points="136.87 73 120.7 101 88.37 101 72.21 73 88.37 45 120.7 45 136.87 73" class="cls-2"/><circle cx="289.4" cy="73.17" r="44.4" class="cls-3"/><g><polygon points="279 71 279 48.19 256 51.43 256 71 279 71" class="cls-4"/><polygon points="282 71 316 71 316 43.33 282 47.71 282 71" class="cls-4"/><polygon points="282 73 282 97.76 316 102.34 316 73 282 73" class="cls-4"/><polygon points="279 73 256 73 256 93.74 279 96.97 279 73" class="cls-4"/></g><polygon points="241.67 73 225.5 101 193.17 101 177.01 73 193.17 45 225.5 45 241.67 73" class="cls-2"/><g><g><g><path d="M81.36,98c-.61.2-1.27.39-1.94.57C83.5,81.58,91.55,84.65,91.55,84.65l1.31,1.24,0,.16C93.19,87.17,94.28,93.86,81.36,98Z" class="cls-5"/><path d="M81.36,98c4-14,10.85-12.13,11.54-11.91C93.19,87.17,94.28,93.86,81.36,98Z" class="cls-6"/><polygon points="93.54 89.25 87.84 83.55 92.4 82.41 94.54 84.56 93.54 89.25" class="cls-7"/></g><polygon points="94.68 76.62 79.28 76.05 77 73.76 90.12 67.49 95.6 69.55 94.68 76.62" class="cls-7"/><polygon points="101.2 81.27 101.77 96.67 104.05 98.95 110.33 85.83 108.27 80.35 101.2 81.27" class="cls-7"/><g><path d="M98.13,88.06H98l-.14-.12-8.13-8.48,0-.2A33.67,33.67,0,0,1,99,62.9c7.38-7.34,24.58-10.42,25.31-10.55l.56-.1-.09.56s-.3,1.79-.92,4.4c-1.67,7-4.68,16.46-9.46,21.27C106.91,86,98.81,88.06,98.13,88.06Z" class="cls-8"/><path d="M123.39,58.2C122,63.94,119.06,73.88,114,78.94a32.91,32.91,0,0,1-15.95,9.12l-4.53-4.53a32.86,32.86,0,0,1,9.13-16C107.73,62.53,117.64,59.57,123.39,58.2Z" class="cls-9"/><path d="M125,52a74.22,74.22,0,0,0-14.76,4.4L121,67.21A99.29,99.29,0,0,0,125,52Z" class="cls-10"/><path d="M98.13,88.06H98l-.14-.12-8.13-8.48,0-.2A33.67,33.67,0,0,1,99,62.9c7.38-7.34,24.58-10.42,25.31-10.55l.56-.1-.09.56s-.3,1.79-.92,4.4c-1.67,7-4.68,16.46-9.46,21.27C106.91,86,98.81,88.06,98.13,88.06Z" class="cls-11"/></g></g><circle cx="106" cy="70" r="4" class="cls-12"/></g><rect width="18" height="25" x="148" y="79" class="cls-11" rx="9" ry="9"/><path d="M172,96.39v22.22a1.39,1.39,0,0,1-1.38,1.39H142.38a1.39,1.39,0,0,1-1.38-1.39V96.39A1.39,1.39,0,0,1,142.38,95h28.24A1.39,1.39,0,0,1,172,96.39Z" class="cls-8"/><path d="M172,96v21.84L148.75,94.64h21.84A1.41,1.41,0,0,1,172,96Z" class="cls-9"/><path d="M172,118.61a1.38,1.38,0,0,1-1.38,1.39H142.38a1.38,1.38,0,0,1-1.38-1.39V96.39A1.38,1.38,0,0,1,142.38,95h28.24A1.38,1.38,0,0,1,172,96.39Z" class="cls-11"/><g><path d="M177,30.08V55.53a1.27,1.27,0,0,1-1.25,1.28h-37.5A1.27,1.27,0,0,1,137,55.53V30.08a1.22,1.22,0,0,1,.06-.38,1.29,1.29,0,0,1,1.19-.9h37.5a1.21,1.21,0,0,1,.89.39,1.19,1.19,0,0,1,.31.56A1,1,0,0,1,177,30.08Z" class="cls-8"/><rect width="4" height="28.45" x="137" y="28.55" class="cls-9"/><rect width="4" height="28.33" x="173" y="29" class="cls-9"/><polygon points="137.65 29.12 157 41.38 176.35 29.12 137.65 29.12" class="cls-13"/><path d="M177,30.28V55.72A1.27,1.27,0,0,1,175.75,57h-37.5A1.27,1.27,0,0,1,137,55.72V30.28a1.22,1.22,0,0,1,.06-.38,1.29,1.29,0,0,1,1.19-.9h37.5a1.21,1.21,0,0,1,.89.39,1.19,1.19,0,0,1,.31.56A1,1,0,0,1,177,30.28Z" class="cls-11"/><polyline points="137.65 29.76 157 41.38 176.35 29.76" class="cls-11"/></g><g><rect width="26" height="22.7" x="196" y="50" class="cls-12"/><path d="M232,66.54V84.46c0,.85-.2,1.54-1.07,1.54H188.07c-.87,0-2.07-.69-2.07-1.54V66.54c0-.85,1.2-1.54,2.07-1.54h42.86C231.8,65,232,65.69,232,66.54Z" class="cls-8"/><path d="M232,66.54V83L214,65h16.93C231.8,65,232,65.69,232,66.54Z" class="cls-14"/><path d="M232,66.54V84.46c0,.85-.2,1.54-1.07,1.54H188.07c-.87,0-2.07-.69-2.07-1.54V66.54c0-.85,1.2-1.54,2.07-1.54h42.86C231.8,65,232,65.69,232,66.54Z" class="cls-11"/><rect width="30" height="5.44" x="194" y="80.56" class="cls-7"/><rect width="28" height="13" x="195" y="80" class="cls-15"/><rect width="34" height="2" x="192" y="79" class="cls-7" rx="1" ry="1"/></g></svg>