<svg xmlns="http://www.w3.org/2000/svg" id="Illustrations" viewBox="0 0 400 140"><defs><style>.cls-1{fill:#556a8a}.cls-2{fill:#fff}.cls-3{fill:#ace8f9}.cls-4,.cls-5{fill:none;stroke:#556a8a;stroke-miterlimit:10;stroke-width:2px}.cls-5{fill:#fcfcfc}.cls-6{fill:#414042}.cls-7{fill:#e5e5e5}.cls-8{fill:#999}.cls-9{fill:#acacac}.cls-10{fill:#0072c6}.cls-11{fill:#bad80a}</style></defs><title>information-worker-product-help-intune-3</title><g><g><g><polygon points="169.53 105.75 163.78 105.75 164.74 92.33 168.58 92.33 169.53 105.75" class="cls-1"/><polygon points="191.28 104 141.72 104 136 108 197 108 191.28 104" class="cls-1"/></g><path d="M231,26V94H102V26a4,4,0,0,1,4-4H227A4,4,0,0,1,231,26Z" class="cls-2"/><path d="M231,26v8H102V26a4,4,0,0,1,4-4H227A4,4,0,0,1,231,26Z" class="cls-3"/><path d="M231,94V26a4,4,0,0,0-4-4H106a4,4,0,0,0-4,4V94Z" class="cls-4"/><rect width="93" height="69" x="208" y="42" class="cls-5" rx="4" ry="4"/><path d="M309,117H201.2a4,4,0,0,1-4.2-3H313S311.83,117,309,117Z" class="cls-6"/><polygon points="200 113 208 108 301 108 310 113 200 113" class="cls-5"/><rect width="85" height="54" x="212" y="46" class="cls-7"/></g><rect width="30" height="56" x="88" y="57" class="cls-5" rx="4" ry="4"/><rect width="24" height="41" x="91" y="64" class="cls-7"/><path d="M106.27,62H98.73c-.4,0-.73-.45-.73-1s.33-1,.73-1h7.54c.4,0,.73.45.73,1S106.67,62,106.27,62Z" class="cls-8"/><polygon points="256 106 253 105.58 253 103.61 256 103 256 106" class="cls-9"/></g><g><path d="M170,69.8c-8.71,0-8.53-1.39-8.53-6.66h-7.21c0,5.27.45,6.66-8.26,6.66V72h24Z" class="cls-10"/><polygon points="176 68 182 63.5 176 59.12 176 68" class="cls-10"/><path d="M178.4,65V62H142V42h32v7h3V40.66c0-.83-1.17-1.66-2-1.66H140.66A1.79,1.79,0,0,0,139,40.66V63.34A1.79,1.79,0,0,0,140.66,65h13.6c.06,4.16,7.16,4.16,7.21,0Z" class="cls-10"/><circle cx="158" cy="51.5" r="4" class="cls-10"/><path d="M185.61,50H161v3h23V74H174V66h-3v9.61A1.37,1.37,0,0,0,172.39,77h13.23A1.37,1.37,0,0,0,187,75.61V51.39A1.37,1.37,0,0,0,185.61,50ZM180,76h-3l-.08-1H180Z" class="cls-10"/></g><g><rect width="2" height="25" x="266" y="32.07" class="cls-1" rx=".5" ry=".5"/><path d="M292,46l-20-8.65v15.4C272,58.3,281.16,63,292,63s20-4.7,20-10.26V37.28Z" class="cls-2"/><path d="M292,46l-20-8.65v15.4C272,58.3,281.16,63,292,63s20-4.7,20-10.26V37.28Z" class="cls-4"/><polygon points="311 36.61 291.81 42.48 273 36.86 273 44 292 52.04 311 44 311 36.61" class="cls-11"/><polygon points="263 33 292 22.07 320 33 292 45 263 33" class="cls-7"/><polygon points="321 33 292 22.07 263 33 292 45.99 321 33" class="cls-4"/><path d="M265,58V54c0-2.2.72-4,1.6-4h.8c.88,0,1.6,1.8,1.6,4v4Z" class="cls-1"/></g><rect width="6" height="2" x="100" y="107" class="cls-8" rx="1" ry="1"/></svg>