<svg xmlns="http://www.w3.org/2000/svg" viewBox="0 0 150 105"><defs><style>.cls-1{fill:#e5e5e5}.cls-2,.cls-3{fill:#fff}.cls-3,.cls-4{stroke:#556a8a;stroke-miterlimit:10;stroke-width:2px}.cls-4{fill:none}.cls-5{fill:#2bc7f4}.cls-6{fill:#556a8a}.cls-7{fill:#55d2f6}</style></defs><title>ms365enterprise-admin-get-started-architecture-4</title><g id="Titles"><g><rect width="99" height="16" x="26" y="15.55" class="cls-1"/><rect width="99" height="59" x="26.3" y="31" class="cls-2"/><line x1="27.3" x2="125.27" y1="31.95" y2="31.95" class="cls-3"/></g><rect width="99" height="76" x="27" y="15" class="cls-4"/><rect width="39" height="17" x="57" y="39" class="cls-5"/><rect width="2" height="29" x="76" y="48" class="cls-5"/><rect width="55" height="2" x="48.3" y="65" class="cls-5"/><rect width="22" height="10" x="66" y="71" class="cls-5" rx="5" ry="5"/><rect width="16" height="10" x="41" y="71" class="cls-5"/><rect width="16" height="10" x="94" y="71" class="cls-5"/><rect width="2" height="13" x="48" y="65" class="cls-5"/><rect width="2" height="13" x="101" y="65" class="cls-5"/><circle cx="115.3" cy="23" r="2" class="cls-6"/><circle cx="108.3" cy="23" r="2" class="cls-6"/><circle cx="101.3" cy="23" r="2" class="cls-6"/><polygon points="96 39 96 53 82 39 96 39" class="cls-7"/><rect width="16" height="4" x="41" y="71" class="cls-7"/><rect width="16" height="4" x="94" y="71" class="cls-7"/></g></svg>