<svg xmlns="http://www.w3.org/2000/svg" viewBox="0 0 150 105"><defs><style>.cls-1{fill:#ace8f9}.cls-2,.cls-8{fill:none}.cls-2{stroke:#2bc7f4}.cls-2,.cls-9{stroke-miterlimit:10;stroke-width:2px}.cls-3,.cls-9{fill:#fff}.cls-4{fill:#e5e5e5}.cls-5{fill:#556a8a}.cls-6{fill:#ffc52b}.cls-7{fill:#ffb900}.cls-9{stroke:#556a8a}</style></defs><title>ms365enterprise-admin-get-started-overview-2</title><g id="ICONS"><path d="M26.37,57.46a23.62,23.62,0,0,1,46.69-.75,16,16,0,0,1,10.31-3.77A16.13,16.13,0,0,1,98.92,65a13.92,13.92,0,0,1,3.34-.42,14.22,14.22,0,0,1,0,28.44H23.09C15.06,91.35,9,83.82,9,75.22A17.68,17.68,0,0,1,26.37,57.46Z" class="cls-1"/><path d="M51.82,83.52C42.26,81.57,35.32,72.78,35.32,62.6s6.92-18.87,16.33-20.88C53.2,31.67,61.7,24,71.61,24a20,20,0,0,1,17,9.68,20,20,0,0,1,9-2.13c8.65,0,27.82-3.07,25.32,7.15,1.3-.28-3.33,6.4-2,6.4A19.25,19.25,0,0,1,140,64.46,19.46,19.46,0,0,1,129,82l-.29.13A17.42,17.42,0,0,1,123,83.69l-.48,0c-2.48.22-5.84.26-11.16.26H55.84A17.09,17.09,0,0,1,51.82,83.52Z" class="cls-2"/><g><path d="M99,71A30.48,30.48,0,0,1,77.44,18.94a30.49,30.49,0,1,1,43.12,43.12A30.29,30.29,0,0,1,99,71Z" class="cls-3"/><path d="M77.35,18.43a30.25,30.25,0,0,1,42.78,42.78Z" class="cls-4"/><path d="M99,11.51A29,29,0,1,1,78.5,20,28.8,28.8,0,0,1,99,11.51h0m0-2a31,31,0,1,0,21.91,9.08A30.89,30.89,0,0,0,99,9.51Z" class="cls-5"/><polygon points="80.61 22.11 93.34 46.16 117.39 58.88 102 36.5 80.61 22.11" class="cls-6"/><polygon points="80.61 22.11 117.39 58.88 104.66 34.84 80.61 22.11" class="cls-7"/><rect width="64" height="64" x="67" y="8.5" class="cls-8"/><line x1="99" x2="99" y1="14.5" y2="21.5" class="cls-9"/><line x1="99" x2="99" y1="59.5" y2="66.5" class="cls-9"/><line x1="73" x2="80" y1="39.5" y2="39.5" class="cls-9"/><line x1="118" x2="125" y1="39.5" y2="39.5" class="cls-9"/><circle cx="99" cy="40.5" r="3" class="cls-3"/></g></g></svg>